<mxfile host="app.diagrams.net" modified="2023-02-12T07:06:55.942Z" agent="5.0 (Windows NT 10.0; Win64; x64) AppleWebKit/537.36 (KHTML, like Gecko) Chrome/109.0.0.0 Safari/537.36" version="20.8.5" etag="AQmSlhT-gfSsfHpLEFIy" type="github">
  <diagram id="XUNsw211o3o_2Q5ld4JQ" name="Page-1">
    <mxGraphModel dx="290" dy="163" grid="1" gridSize="10" guides="1" tooltips="1" connect="1" arrows="1" fold="1" page="1" pageScale="1" pageWidth="827" pageHeight="1169" math="0" shadow="0">
      <root>
        <mxCell id="0" />
        <mxCell id="1" parent="0" />
        <mxCell id="hDWNIPYn-BoX0UfPb-T5-1" value="" style="rounded=0;whiteSpace=wrap;html=1;" vertex="1" parent="1">
          <mxGeometry x="40" y="160" width="210" height="170" as="geometry" />
        </mxCell>
        <mxCell id="hDWNIPYn-BoX0UfPb-T5-2" value="" style="ellipse;whiteSpace=wrap;html=1;aspect=fixed;" vertex="1" parent="1">
          <mxGeometry x="50" y="170" width="10" height="10" as="geometry" />
        </mxCell>
        <mxCell id="hDWNIPYn-BoX0UfPb-T5-4" value="" style="ellipse;whiteSpace=wrap;html=1;aspect=fixed;" vertex="1" parent="1">
          <mxGeometry x="50" y="190" width="10" height="10" as="geometry" />
        </mxCell>
        <mxCell id="hDWNIPYn-BoX0UfPb-T5-5" value="" style="ellipse;whiteSpace=wrap;html=1;aspect=fixed;" vertex="1" parent="1">
          <mxGeometry x="50" y="210" width="10" height="10" as="geometry" />
        </mxCell>
        <mxCell id="hDWNIPYn-BoX0UfPb-T5-6" value="" style="ellipse;whiteSpace=wrap;html=1;aspect=fixed;" vertex="1" parent="1">
          <mxGeometry x="50" y="230" width="10" height="10" as="geometry" />
        </mxCell>
        <mxCell id="hDWNIPYn-BoX0UfPb-T5-7" value="" style="ellipse;whiteSpace=wrap;html=1;aspect=fixed;" vertex="1" parent="1">
          <mxGeometry x="50" y="250" width="10" height="10" as="geometry" />
        </mxCell>
        <mxCell id="hDWNIPYn-BoX0UfPb-T5-8" value="" style="ellipse;whiteSpace=wrap;html=1;aspect=fixed;" vertex="1" parent="1">
          <mxGeometry x="50" y="270" width="10" height="10" as="geometry" />
        </mxCell>
        <mxCell id="hDWNIPYn-BoX0UfPb-T5-9" value="" style="ellipse;whiteSpace=wrap;html=1;aspect=fixed;" vertex="1" parent="1">
          <mxGeometry x="50" y="290" width="10" height="10" as="geometry" />
        </mxCell>
        <mxCell id="hDWNIPYn-BoX0UfPb-T5-10" value="" style="ellipse;whiteSpace=wrap;html=1;aspect=fixed;" vertex="1" parent="1">
          <mxGeometry x="230" y="170" width="10" height="10" as="geometry" />
        </mxCell>
        <mxCell id="hDWNIPYn-BoX0UfPb-T5-11" value="" style="ellipse;whiteSpace=wrap;html=1;aspect=fixed;" vertex="1" parent="1">
          <mxGeometry x="230" y="190" width="10" height="10" as="geometry" />
        </mxCell>
        <mxCell id="hDWNIPYn-BoX0UfPb-T5-12" value="" style="ellipse;whiteSpace=wrap;html=1;aspect=fixed;" vertex="1" parent="1">
          <mxGeometry x="230" y="210" width="10" height="10" as="geometry" />
        </mxCell>
        <mxCell id="hDWNIPYn-BoX0UfPb-T5-13" value="" style="ellipse;whiteSpace=wrap;html=1;aspect=fixed;" vertex="1" parent="1">
          <mxGeometry x="230" y="230" width="10" height="10" as="geometry" />
        </mxCell>
        <mxCell id="hDWNIPYn-BoX0UfPb-T5-14" value="" style="ellipse;whiteSpace=wrap;html=1;aspect=fixed;" vertex="1" parent="1">
          <mxGeometry x="230" y="250" width="10" height="10" as="geometry" />
        </mxCell>
        <mxCell id="hDWNIPYn-BoX0UfPb-T5-15" value="" style="ellipse;whiteSpace=wrap;html=1;aspect=fixed;" vertex="1" parent="1">
          <mxGeometry x="230" y="270" width="10" height="10" as="geometry" />
        </mxCell>
        <mxCell id="hDWNIPYn-BoX0UfPb-T5-16" value="" style="ellipse;whiteSpace=wrap;html=1;aspect=fixed;" vertex="1" parent="1">
          <mxGeometry x="230" y="290" width="10" height="10" as="geometry" />
        </mxCell>
        <mxCell id="hDWNIPYn-BoX0UfPb-T5-17" value="&lt;pre&gt;&lt;br&gt;&lt;/pre&gt;" style="ellipse;whiteSpace=wrap;html=1;aspect=fixed;align=center;" vertex="1" parent="1">
          <mxGeometry x="80" y="310" width="10" height="10" as="geometry" />
        </mxCell>
        <mxCell id="hDWNIPYn-BoX0UfPb-T5-18" value="" style="ellipse;whiteSpace=wrap;html=1;aspect=fixed;" vertex="1" parent="1">
          <mxGeometry x="200" y="310" width="10" height="10" as="geometry" />
        </mxCell>
        <mxCell id="hDWNIPYn-BoX0UfPb-T5-19" value="" style="ellipse;whiteSpace=wrap;html=1;aspect=fixed;" vertex="1" parent="1">
          <mxGeometry x="180" y="310" width="10" height="10" as="geometry" />
        </mxCell>
        <mxCell id="hDWNIPYn-BoX0UfPb-T5-20" value="" style="ellipse;whiteSpace=wrap;html=1;aspect=fixed;" vertex="1" parent="1">
          <mxGeometry x="160" y="310" width="10" height="10" as="geometry" />
        </mxCell>
        <mxCell id="hDWNIPYn-BoX0UfPb-T5-21" value="" style="ellipse;whiteSpace=wrap;html=1;aspect=fixed;" vertex="1" parent="1">
          <mxGeometry x="140" y="310" width="10" height="10" as="geometry" />
        </mxCell>
        <mxCell id="hDWNIPYn-BoX0UfPb-T5-22" value="" style="ellipse;whiteSpace=wrap;html=1;aspect=fixed;" vertex="1" parent="1">
          <mxGeometry x="100" y="310" width="10" height="10" as="geometry" />
        </mxCell>
        <mxCell id="hDWNIPYn-BoX0UfPb-T5-23" value="" style="ellipse;whiteSpace=wrap;html=1;aspect=fixed;" vertex="1" parent="1">
          <mxGeometry x="120" y="310" width="10" height="10" as="geometry" />
        </mxCell>
        <mxCell id="hDWNIPYn-BoX0UfPb-T5-24" value="&lt;pre style=&quot;border-color: var(--border-color); font-size: 12px;&quot;&gt;&lt;font style=&quot;border-color: var(--border-color); font-size: 9px;&quot; data-font-src=&quot;https://fonts.googleapis.com/css?family=ubuntu+mono&quot; face=&quot;ubuntu mono&quot;&gt;a&lt;/font&gt;&lt;/pre&gt;" style="text;html=1;strokeColor=none;fillColor=none;align=center;verticalAlign=middle;whiteSpace=wrap;rounded=0;fontSize=9;" vertex="1" parent="1">
          <mxGeometry x="80" y="290" width="10" height="10" as="geometry" />
        </mxCell>
      </root>
    </mxGraphModel>
  </diagram>
</mxfile>
